<?xml version="1.0" ?>

<!DOCTYPE svg  PUBLIC '-//W3C//DTD SVG 1.1//EN'  'http://www.w3.org/Graphics/SVG/1.1/DTD/svg11.dtd'>

<!-- Uploaded to: SVG Repo, www.svgrepo.com, Generator: SVG Repo Mixer Tools -->
<svg fill="#04f6ff" viewBox="0 0 512 512" version="1.1" xml:space="preserve" xmlns="http://www.w3.org/2000/svg" xmlns:xlink="http://www.w3.org/1999/xlink">

<g id="_x37_36_x2C__Efficiency_x2C__management_x2C__processing_x2C__productivity_x2C__project">

<g>

<path d="M219.354,194.503c0.916,1.585,0.379,3.597-1.179,4.512c-1.586,0.912-3.601,0.376-4.513-1.209l-8.809-15.255    c-6.068,3.813-11.708,8.299-16.758,13.375c-5.047,5.049-9.532,10.66-13.347,16.756l15.256,8.81    c1.558,0.914,2.095,2.927,1.179,4.485c-0.913,1.584-2.927,2.121-4.485,1.209l-15.252-8.809    c-6.581,12.354-10.5,26.317-11.009,41.141h17.589c1.825,0,3.302,1.479,3.302,3.303c0,1.827-1.477,3.305-3.302,3.305h-17.589    c0.509,14.824,4.429,28.788,11.009,41.142l15.252-8.809c1.559-0.914,3.573-0.376,4.485,1.181c0.916,1.585,0.379,3.6-1.179,4.512    l-15.256,8.809c3.762,6.016,8.191,11.601,13.185,16.597l0.162,0.161c5.05,5.049,10.69,9.533,16.758,13.347l8.809-15.254    c0.912-1.557,2.927-2.095,4.513-1.181c1.558,0.912,2.095,2.927,1.179,4.484l-8.806,15.253c12.35,6.58,26.318,10.501,41.139,11.011    v-17.59c0-1.826,1.505-3.304,3.306-3.304c1.825,0,3.302,1.478,3.302,3.304v17.59c14.824-0.51,28.788-4.431,41.142-11.011    l-8.809-15.253c-0.912-1.558-0.375-3.572,1.207-4.484c1.559-0.914,3.602-0.376,4.485,1.181l8.809,15.254    c6.097-3.813,11.709-8.298,16.787-13.347c5.046-5.049,9.531-10.688,13.346-16.758l-15.256-8.809    c-1.558-0.912-2.119-2.927-1.207-4.512c0.912-1.557,2.928-2.095,4.51-1.181l15.256,8.78c6.553-12.325,10.473-26.289,10.984-41.113    h-17.593c-1.825,0-3.302-1.478-3.302-3.305c0-1.824,1.477-3.303,3.302-3.303h17.593c-0.512-14.823-4.432-28.814-10.984-41.141    l-15.256,8.809c-1.582,0.912-3.598,0.375-4.51-1.209c-0.912-1.559-0.351-3.571,1.207-4.485l15.256-8.81    c-3.762-6.015-8.191-11.6-13.188-16.622l-0.157-0.134c-5.078-5.076-10.69-9.562-16.787-13.375l-8.809,15.255    c-0.884,1.585-2.927,2.121-4.485,1.209c-1.582-0.915-2.119-2.927-1.207-4.512l8.809-15.228    c-12.325-6.578-26.293-10.5-41.142-11.01v17.59c0,1.825-1.477,3.303-3.302,3.303c-1.8,0-3.306-1.478-3.306-3.303v-17.59    c-14.821,0.51-28.789,4.432-41.139,11.01L219.354,194.503z M215.648,235.885c-1.421-1.128-1.664-3.195-0.537-4.618    c1.13-1.423,3.169-1.665,4.594-0.536l35.555,28.115l31.235-18.421c1.582-0.94,3.597-0.43,4.51,1.155    c0.94,1.556,0.403,3.57-1.155,4.511l-33.164,19.55c-1.155,0.672-2.632,0.617-3.706-0.242L215.648,235.885z M254.993,161.605    c27.953,0,53.278,11.332,71.566,29.648l0.189,0.188c18.207,18.314,29.459,43.531,29.459,71.379    c0,27.957-11.332,53.254-29.648,71.57c-18.288,18.313-43.613,29.646-71.566,29.646c-27.929,0-53.253-11.333-71.569-29.646    l-0.189-0.217c-18.207-18.287-29.458-43.504-29.458-71.354c0-27.928,11.332-53.253,29.648-71.566    C201.74,172.938,227.064,161.605,254.993,161.605z M74.661,148.876c2.309-3.868-3.436-7.089-5.583-3.492l-3.492,5.694    c-2.204,3.68,3.517,6.956,5.692,3.357L74.661,148.876z M89.86,127.822c2.822-3.76-2.713-7.386-5.103-4.164    c-1.421,1.72-2.793,3.466-4.162,5.238c-2.685,3.545,2.685,7.412,5.236,4.027L89.86,127.822z M107.506,108.756    c3.194-3.197-1.614-7.735-4.566-4.754l-4.78,4.699c-3.008,3.008,1.583,7.734,4.724,4.618L107.506,108.756z M127.324,91.943    c3.464-2.578-0.512-7.869-3.976-5.263l-5.289,4.081c-3.411,2.552,0.723,7.707,4.082,5.184L127.324,91.943z M149.023,77.684    c3.868-2.337,0.295-7.896-3.278-5.721c-1.934,1.021-3.92,2.258-5.773,3.412c-3.654,2.202-0.323,7.895,3.464,5.611    C145.237,79.887,147.143,78.678,149.023,77.684z M172.306,66.137c3.839-1.531,1.583-7.736-2.471-6.097    c-2.095,0.831-4.19,1.799-6.229,2.713c-3.787,1.53-1.506,7.706,2.737,6.015C168.305,67.854,170.319,66.968,172.306,66.137z     M196.823,57.543c4.162-1.665,2.446-7.197-1.825-6.338l-6.419,1.934c-4.59,1.824-1.478,7.681,2.014,6.283L196.823,57.543z     M222.204,52.037c4.59-0.939,2.899-7.304-1.021-6.526c-2.204,0.323-4.46,0.698-6.633,1.128c-4.324,0.86-2.955,7.305,1.235,6.474    C217.904,52.709,220.08,52.333,222.204,52.037z M248.062,49.646c4.085,0,4.38-6.606-0.214-6.606    c-2.201,0.028-4.51,0.161-6.714,0.323c-3.868,0-4.376,6.58,0.432,6.58C243.657,49.756,245.942,49.675,248.062,49.646z     M274.031,50.346c5.075,0,4.19-6.553,0.565-6.553l-6.661-0.482c-4.833,0-4.271,6.578-0.403,6.578L274.031,50.346z     M438.063,372.334c-2.015,3.357,2.766,7.253,5.664,3.412l3.358-5.828c0.323-0.51,0.509-1.423,0.376-2.147    c-0.618-3.089-4.485-3.786-6.124-1.073L438.063,372.334z M423.371,393.766c-2.66,3.572,2.686,7.412,5.236,4.029l4.001-5.346    c2.552-3.383-2.737-7.305-5.316-3.894L423.371,393.766z M406.21,413.263c-3.061,3.034,1.587,7.707,4.675,4.618    c1.559-1.53,3.222-3.195,4.671-4.807c1.235-1.263,1.103-3.385-0.104-4.592c-1.345-1.37-3.412-1.235-4.728,0.107L406.21,413.263z     M386.795,430.529c-3.383,2.552,0.59,7.815,4.11,5.184c1.716-1.369,3.517-2.794,5.184-4.243c3.222-3.195-0.808-7.6-4.243-5.049    L386.795,430.529z M365.472,445.327c-3.706,2.202-0.347,7.895,3.411,5.64c1.906-1.128,3.814-2.363,5.668-3.572    c3.598-2.148,0.238-7.841-3.601-5.531C369.178,443.044,367.301,444.253,365.472,445.327z M342.457,457.412    c-3.787,1.53-1.502,7.707,2.74,6.016l6.043-2.847c3.731-1.478,1.422-7.654-2.873-5.937L342.457,457.412z M318.153,466.623    c-4.591,1.826-1.478,7.68,1.989,6.283l6.363-2.067c4.404-1.771,1.53-7.734-2.148-6.257L318.153,466.623z M292.938,472.745    c-4.377,0.886-2.955,7.331,1.183,6.499c2.2-0.403,4.376-0.805,6.577-1.289c4.085-0.806,3.007-7.332-1.394-6.445L292.938,472.745z     M267.129,475.78c-0.562,0-1.316,0.295-1.664,0.563c-2.66,2.015-1.425,6.016,2.043,6.016c2.229-0.107,4.481-0.269,6.686-0.482    c3.811,0,4.295-6.553-0.565-6.553C271.48,475.484,269.305,475.674,267.129,475.78z M241.162,475.674    c-4.889,0-4.243,6.578-0.432,6.578l6.714,0.35c4.594,0,4.299-6.606,0.189-6.606L241.162,475.674z M215.381,472.45    c-4.162-0.832-5.559,5.613-1.207,6.472l6.605,1.154c4.053,0.808,5.45-5.773,1.046-6.524L215.381,472.45z M190.19,466.086    c-3.222-1.29-5.935,3.57-3.141,5.666c0.189,0.242,0.86,0.511,1.155,0.644l6.419,1.934c4.243,0.834,6.015-4.673,1.8-6.364    L190.19,466.086z M165.967,456.714c-4.404-1.772-6.391,4.537-2.737,5.988l6.121,2.712c4.19,1.665,6.471-4.512,2.579-6.068    L165.967,456.714z M143.089,444.44c-3.815-2.282-7.117,3.438-3.467,5.612l5.749,3.438c2.604,1.559,5.882-1.154,4.727-4.082    c-0.27-0.67-0.726-1.235-1.425-1.637L143.089,444.44z M121.846,429.455c-3.653-2.739-7.387,2.713-4.109,5.184    c1.744,1.396,3.517,2.739,5.289,4.082c3.387,2.551,7.468-2.471,3.977-5.263L121.846,429.455z M102.589,412.027    c-3.113-3.089-7.735,1.61-4.699,4.645l4.755,4.728c2.979,2.981,7.57-1.772,4.562-4.78L102.589,412.027z M85.564,392.423    c-2.551-3.411-7.896,0.456-5.236,4.001L85.564,392.423z M71.063,370.859c-2.285-3.761-7.896-0.323-5.692,3.356    c1.126,1.934,2.309,3.839,3.488,5.719c2.176,3.653,7.763,0.135,5.587-3.517C73.292,374.592,72.137,372.738,71.063,370.859z     M59.275,347.711c-1.534-3.815-7.682-1.426-6.043,2.658l2.766,6.096c1.478,3.732,7.679,1.476,5.963-2.82    C61.019,351.685,60.131,349.697,59.275,347.711z M50.385,323.324c-1.881-4.752-7.654-1.476-6.313,1.854    c0.646,2.149,1.292,4.297,2.015,6.418c1.772,4.486,7.682,1.504,6.257-2.095L50.385,323.324z M44.584,297.974    c-0.888-4.457-7.307-2.927-6.5,1.128l1.208,6.58c0.835,4.27,7.307,2.954,6.447-1.289L44.584,297.974z M41.899,272.166    c0-4.028-6.58-4.35-6.58,0.217l0.375,6.766c0,3.867,6.58,4.298,6.58-0.51C42.113,276.49,41.98,274.288,41.899,272.166z     M42.355,246.172c0-4.941-6.58-4.243-6.58-0.484c-0.214,2.041-0.428,4.62-0.428,6.66c0,4.781,6.577,4.27,6.577,0.35    L42.355,246.172z M356.771,75.32c2.229,1.342,5.346-0.753,4.833-3.438c-0.242-1.1-0.724-1.772-1.716-2.363l-5.91-3.115    c-4.699-1.854-6.363,4.538-2.98,5.908L356.771,75.32z M378.794,89.097c0.267,0.214,0.779,0.456,1.155,0.537    c3.625,0.725,5.53-3.759,2.656-5.908l-5.503-3.813c-4.085-2.443-7.036,3.465-3.682,5.479L378.794,89.097z M398.988,105.451    c2.898,2.9,7.573-1.746,4.618-4.699c-1.583-1.584-3.492-3.143-5.185-4.619c-1.179-1.182-3.088-0.914-4.295-0.027    c-1.559,1.584-1.559,3.465-0.028,5.021L398.988,105.451z M417.033,124.117c3.521,3.516,7.654-1.666,4.994-4.299l-4.429-5.021    c-3.303-3.33-7.683,1.611-4.86,4.459L417.033,124.117z M432.718,144.82c0.375,0.645,1.263,1.236,1.934,1.371    c3.116,0.644,5.103-2.418,3.544-5.022c-1.207-1.853-2.498-3.733-3.786-5.532c-2.713-3.625-7.868,0.51-5.37,3.841    C430.3,141.222,431.535,143.021,432.718,144.82z M445.77,167.299c1.396,3.49,7.707,1.53,5.962-2.82    c-0.968-2.014-2.095-4.109-3.169-6.096c-2.418-4.028-7.868-0.296-5.801,3.142C443.808,163.432,444.801,165.365,445.77,167.299z     M455.975,191.172c1.717,4.298,7.707,1.559,6.201-2.229c-0.751-2.095-1.529-4.189-2.333-6.257c-1.64-4.081-7.735-1.585-6.152,2.39    C454.47,187.117,455.248,189.132,455.975,191.172z M463.169,216.148c0.808,4.055,7.332,2.979,6.447-1.479    c-0.484-2.176-1.021-4.35-1.558-6.499c-0.779-3.894-7.332-2.979-6.392,1.639C462.204,211.904,462.713,214.026,463.169,216.148z     M467.279,241.768c1.021,5.074,7.25,2.846,6.552-0.645c-0.214-2.202-0.456-4.432-0.751-6.66c-0.965-4.807-7.278-2.847-6.524,0.859    C466.822,237.47,467.064,239.619,467.279,241.768z M468.248,267.736c0,4.537,6.604,4.323,6.604,0.16l0.028-6.713    c0-4.243-6.581-4.19-6.581,0.053C468.3,263.412,468.3,265.588,468.248,267.736z M466.097,293.623c-0.105,0.537,0,1.236,0.161,1.64    c1.235,3.089,5.668,2.792,6.366-0.698c0.295-2.176,0.509-4.459,0.859-6.633c0.751-3.787-5.772-5.479-6.552-0.808L466.097,293.623z     M462.418,301.841c6.5,0,12.382,2.632,16.649,6.901c4.299,4.271,6.932,10.18,6.932,16.678c0,6.5-2.633,12.408-6.903,16.65    c-4.296,4.296-10.178,6.928-16.678,6.928c-1.663,0-3.302-0.161-4.889-0.51l-1.449,3.465c-1.502,3.759-7.76,1.637-6.04-2.687    l1.288-3.034c-2.067-1.102-3.948-2.496-5.587-4.136l-0.214-0.214c-4.135-4.244-6.686-10.07-6.686-16.463    c0-6.498,2.632-12.406,6.899-16.678C450.012,304.473,455.895,301.841,462.418,301.841z M49.578,171.756    c1.72,0,3.383,0.188,4.994,0.537l1.586-3.464c1.449-3.599,7.759-1.691,5.962,2.794l-1.316,2.953c2.014,1.1,3.839,2.471,5.45,4.082    l0.214,0.215c4.138,4.243,6.689,10.07,6.689,16.462c0,6.499-2.632,12.38-6.903,16.65c-4.271,4.296-10.178,6.929-16.677,6.929    c-1.288,0-2.551-0.107-3.787-0.295c0.214,0.536,0.27,1.126,0.109,1.853c-0.295,2.067-0.779,4.376-1.183,6.445    c-0.727,4.243-7.332,3.007-6.5-1.183c0.351-2.203,0.888-4.404,1.235-6.579c0.162-0.914,0.618-1.585,1.183-1.987    c-2.899-1.208-5.531-2.98-7.707-5.156c-4.271-4.27-6.928-10.178-6.928-16.677c0-6.526,2.657-12.406,6.899-16.677    C37.172,174.389,43.079,171.756,49.578,171.756z M308.863,29.398c6.524,0,12.435,2.633,16.678,6.901l0.214,0.216    c4.134,4.243,6.714,10.043,6.714,16.461c0,1.316-0.134,2.604-0.323,3.868c1.183,0.43,2.362,0.886,3.545,1.368    c4.001,1.585,1.558,7.735-2.471,6.125l-3.089-1.184c-1.154,2.418-2.713,4.621-4.59,6.474c-4.243,4.27-10.153,6.928-16.678,6.928    c-6.472,0-12.382-2.632-16.652-6.901c-4.268-4.297-6.928-10.205-6.928-16.678c0-6.525,2.66-12.407,6.928-16.677l0.218-0.214    C296.672,31.95,302.469,29.398,308.863,29.398z M70.632,262.82v10.636l49.066,7.358c1.555,0.242,2.709,1.529,2.79,3.033    c0.726,4.592,1.719,9.158,2.93,13.696l0.024,0.108c1.235,4.645,2.713,9.156,4.376,13.508c0.537,1.369,0.081,2.873-1.018,3.732    l-38.808,30.91l10.637,18.424l46.217-18.182c1.369-0.537,2.899-0.08,3.759,0.993c3.036,3.732,6.229,7.276,9.56,10.634    c3.383,3.357,6.928,6.555,10.609,9.533c1.154,0.941,1.502,2.471,0.993,3.761l-18.155,46.217l18.397,10.636l30.908-38.807    c0.968-1.181,2.551-1.53,3.896-0.967c4.352,1.665,8.833,3.143,13.456,4.378c4.643,1.235,9.29,2.229,13.964,2.954    c1.474,0.215,2.552,1.369,2.766,2.738l7.384,49.064h21.242l7.385-49.064c0.214-1.557,1.505-2.685,3.035-2.791    c4.566-0.727,9.156-1.692,13.67-2.901c4.671-1.262,9.209-2.739,13.613-4.431c1.372-0.511,2.874-0.08,3.734,1.02L338,427.818    l18.396-10.636l-18.154-46.217c-0.537-1.37-0.109-2.874,0.992-3.761c3.678-2.979,7.251-6.176,10.635-9.56    c3.41-3.411,6.58-6.956,9.535-10.581c0.912-1.154,2.442-1.53,3.758-1.02l46.217,18.152l10.638-18.395l-38.833-30.91    c-1.183-0.94-1.533-2.551-0.969-3.894c1.668-4.323,3.142-8.835,4.377-13.481c1.235-4.619,2.232-9.266,2.955-13.938    c0.242-1.45,1.369-2.523,2.766-2.74l49.066-7.384v-21.269l-49.066-7.387c-1.555-0.214-2.713-1.504-2.791-3.033    c-0.727-4.566-1.719-9.133-2.93-13.644c-1.235-4.699-2.738-9.237-4.4-13.615c-0.541-1.368-0.082-2.9,1.018-3.759l38.808-30.91    l-10.638-18.423l-46.217,18.181c-1.421,0.537-2.979,0.053-3.839-1.128c-2.955-3.651-6.124-7.144-9.454-10.474    c-3.437-3.41-6.98-6.633-10.635-9.561c-1.126-0.938-1.502-2.471-0.992-3.787l18.154-46.189L338,97.825l-30.908,38.804    c-0.97,1.184-2.552,1.533-3.896,0.968c-4.352-1.665-8.861-3.142-13.479-4.376c-4.619-1.236-9.293-2.23-13.965-2.955    c-1.453-0.215-2.526-1.369-2.74-2.766l-7.385-49.064h-21.242L237,127.5c-0.242,1.558-1.53,2.713-3.036,2.819    c-4.59,0.698-9.156,1.692-13.669,2.901c-4.671,1.234-9.237,2.738-13.613,4.404c-1.373,0.537-2.875,0.078-3.734-1.021    l-30.936-38.778l-18.397,10.634l18.155,46.189c0.565,1.424,0.081,3.008-1.102,3.868c-3.65,2.955-7.17,6.122-10.5,9.452    c-3.411,3.412-6.605,6.957-9.56,10.607c-0.913,1.155-2.443,1.533-3.759,1.021l-46.217-18.181l-10.637,18.396l38.808,30.91    c1.207,0.967,1.555,2.551,0.965,3.893c-1.663,4.353-3.113,8.863-4.348,13.456c-1.235,4.646-2.232,9.317-2.955,13.991    c-0.242,1.451-1.369,2.524-2.765,2.738l-49.066,7.387V262.82z"/>

</g>

</g>

<g id="Layer_1"/>

</svg>